<svg xmlns="http://www.w3.org/2000/svg" width="21" height="18" viewBox="0 0 21 18" fill="none">
  <path d="M13 4.93384C13.621 5.39957 14.125 6.00349 14.4721 6.69777C14.8193 7.39205 15 8.15761 15 8.93384C15 9.71006 14.8193 10.4756 14.4721 11.1699C14.125 11.8642 13.621 12.4681 13 12.9338M15.6992 1.93384C16.7432 2.77749 17.5852 3.84396 18.1637 5.05516C18.7421 6.26635 19.0424 7.5916 19.0424 8.93384C19.0424 10.2761 18.7421 11.6013 18.1637 12.8125C17.5852 14.0237 16.7432 15.0902 15.6992 15.9338M4 11.9338H2C1.73478 11.9338 1.48043 11.8285 1.29289 11.6409C1.10536 11.4534 1 11.199 1 10.9338V6.93381C1 6.66859 1.10536 6.41424 1.29289 6.2267C1.48043 6.03917 1.73478 5.93381 2 5.93381H4L7.5 1.43381C7.5874 1.26404 7.73265 1.13113 7.90949 1.0591C8.08633 0.987072 8.2831 0.980671 8.46425 1.04105C8.6454 1.10144 8.79898 1.22462 8.89723 1.38835C8.99549 1.55208 9.03194 1.74555 9 1.93381V15.9338C9.03194 16.1221 8.99549 16.3155 8.89723 16.4793C8.79898 16.643 8.6454 16.7662 8.46425 16.8266C8.2831 16.887 8.08633 16.8805 7.90949 16.8085C7.73265 16.7365 7.5874 16.6036 7.5 16.4338L4 11.9338Z" stroke="white" stroke-width="2" stroke-linecap="round" stroke-linejoin="round"/>
</svg>