<svg xmlns="http://www.w3.org/2000/svg" width="21" height="20" viewBox="0 0 21 20" fill="none">
  <path d="M13 6C13.7483 6.56124 14.3242 7.32114 14.6622 8.19334C15.0002 9.06554 15.0867 10.0151 14.912 10.934M13.535 13.536C13.3679 13.7031 13.1891 13.8582 13 14M15.7 3C17.305 4.29704 18.4155 6.10621 18.8455 8.12445C19.2755 10.1427 18.9989 12.2474 18.062 14.086M16.386 16.385C16.168 16.6016 15.939 16.8068 15.7 17M7.069 3.054L7.5 2.5C7.5874 2.33023 7.73265 2.19733 7.90949 2.1253C8.08633 2.05327 8.2831 2.04686 8.46425 2.10725C8.6454 2.16763 8.79898 2.29081 8.89723 2.45454C8.99549 2.61827 9.03194 2.81175 9 3V5M9 9V17C9.03194 17.1883 8.99549 17.3817 8.89723 17.5455C8.79898 17.7092 8.6454 17.8324 8.46425 17.8928C8.2831 17.9531 8.08633 17.9467 7.90949 17.8747C7.73265 17.8027 7.5874 17.6698 7.5 17.5L4 13H2C1.73478 13 1.48043 12.8946 1.29289 12.7071C1.10536 12.5196 1 12.2652 1 12V8C1 7.73479 1.10536 7.48043 1.29289 7.2929C1.48043 7.10536 1.73478 7 2 7H4L5.294 5.336M1 1L19 19" stroke="white" stroke-width="2" stroke-linecap="round" stroke-linejoin="round"/>
</svg>