<svg xmlns="http://www.w3.org/2000/svg" width="20" height="20" viewBox="0 0 20 20" fill="none">
  <path d="M2.012 14.737C1.70534 14.5622 1.45027 14.3095 1.27258 14.0045C1.09488 13.6995 1.00085 13.353 1 13V3C1 1.9 1.9 1 3 1H13C13.75 1 14.158 1.385 14.5 2M5 7.667C5 6.95967 5.28099 6.28131 5.78115 5.78115C6.28131 5.28099 6.95967 5 7.667 5H16.333C16.6832 5 17.03 5.06898 17.3536 5.20301C17.6772 5.33704 17.9712 5.53349 18.2189 5.78115C18.4665 6.0288 18.663 6.32281 18.797 6.64638C18.931 6.96996 19 7.31676 19 7.667V16.333C19 16.6832 18.931 17.03 18.797 17.3536C18.663 17.6772 18.4665 17.9712 18.2189 18.2189C17.9712 18.4665 17.6772 18.663 17.3536 18.797C17.03 18.931 16.6832 19 16.333 19H7.667C7.31676 19 6.96996 18.931 6.64638 18.797C6.32281 18.663 6.0288 18.4665 5.78115 18.2189C5.53349 17.9712 5.33704 17.6772 5.20301 17.3536C5.06898 17.03 5 16.6832 5 16.333V7.667Z" stroke="white" stroke-width="2" stroke-linecap="round" stroke-linejoin="round"/>
</svg>